<?xml version="1.0" encoding="UTF-8"?>
<svg width="100pt" height="100pt" version="1.1" viewBox="0 0 100 100" xmlns="http://www.w3.org/2000/svg">
 <path d="m97.727 15.91h-2.2734v-8.8633c-0.019531-3.8828-3.1602-7.0273-7.043-7.0469h-76.82c-3.8828 0.019531-7.0234 3.1641-7.043 7.0469v8.8633h-2.2734c-1.2539 0.003906-2.2695 1.0195-2.2734 2.2734v27.27c0.0039062 1.2539 1.0195 2.2695 2.2734 2.2734h2.2734v36.137c0.007813 3.7969 3.0234 6.8984 6.8164 7.0234v3.4297c0 3.1406 2.543 5.6836 5.6836 5.6836 3.1367 0 5.6797-2.543 5.6797-5.6836v-3.4062h56.82v3.4102-0.003906c0 3.1406 2.543 5.6836 5.6797 5.6836 3.1406 0 5.6836-2.543 5.6836-5.6836v-3.8633c2.7227-1.0586 4.5234-3.668 4.543-6.5898v-36.137h2.2734c1.2539-0.003906 2.2695-1.0195 2.2734-2.2734v-27.27c-0.003906-1.2539-1.0195-2.2695-2.2734-2.2734zm-86.363-6.8203c0.003907-1.2539 1.0195-2.2695 2.2734-2.2734h72.727c1.2539 0.003906 2.2695 1.0195 2.2734 2.2734v2.2734c-0.003907 1.2539-1.0195 2.2695-2.2734 2.2734h-72.727c-1.2539-0.003907-2.2695-1.0195-2.2734-2.2734zm9.0898 71.594c-0.98047 0.73438-2.1797 1.1328-3.4062 1.1328-1.2266 0.011719-2.418-0.38672-3.3867-1.1328-1.957-1.4648-2.7539-4.0156-1.9844-6.332 0.77344-2.3164 2.9375-3.8789 5.3828-3.8789 2.4414 0 4.6094 1.5625 5.3789 3.8789 0.76953 2.3164-0.027344 4.8672-1.9844 6.332zm25-28.41c-0.003906 1.2539-1.0195 2.2695-2.2695 2.2734h-29.547c-1.2539-0.003906-2.2695-1.0195-2.2734-2.2734v-27.273c0.003907-1.2539 1.0195-2.2695 2.2734-2.2734h29.547c1.25 0.003907 2.2656 1.0195 2.2695 2.2734zm9.0898 0 0.003906-27.273c0.003906-1.2539 1.0195-2.2695 2.2695-2.2734h29.547c1.2539 0.003907 2.2695 1.0195 2.2734 2.2734v27.273c-0.003907 1.2539-1.0195 2.2695-2.2734 2.2734h-29.547c-1.25-0.003906-2.2656-1.0195-2.2695-2.2734zm34.094 28.41c-0.98438 0.73438-2.1797 1.1328-3.4102 1.1328-1.2227 0.011719-2.4141-0.38672-3.3867-1.1328-1.9531-1.4648-2.7539-4.0156-1.9805-6.332 0.76953-2.3164 2.9375-3.8789 5.3789-3.8789 2.4414 0 4.6094 1.5625 5.3789 3.8789 0.77344 2.3164-0.027344 4.8672-1.9805 6.332z" fill="#ffb251"/>
</svg>
