<?xml version="1.0" encoding="UTF-8"?>
<svg width="100pt" height="100pt" version="1.1" viewBox="0 0 100 100" xmlns="http://www.w3.org/2000/svg">
 <g fill="#ffb251">
  <path d="m60.418 50c0 5.7539-4.6641 10.418-10.418 10.418s-10.418-4.6641-10.418-10.418 4.6641-10.418 10.418-10.418 10.418 4.6641 10.418 10.418"/>
  <path d="m50 33.332c3.4531 0 6.25-2.7969 6.25-6.25v-20.832c-0.007812-3.4492-2.8008-6.2383-6.25-6.2383-3.4453 0-6.2422 2.7891-6.25 6.2383v20.832c0 1.6602 0.66016 3.25 1.832 4.4219s2.7617 1.8281 4.418 1.8281z"/>
  <path d="m37.727 37.727c2.4766-2.4727 2.4766-6.4805 0-8.957l-26.914-26.914c-2.4727-2.4727-6.4844-2.4727-8.957 0-2.4727 2.4727-2.4727 6.4844 0 8.957l26.914 26.914c2.4766 2.4766 6.4844 2.4766 8.957 0z"/>
  <path d="m14.559 43.75h12.551c3.4375 0 6.2227 3.4375 6.2227 6.2227v0.050782c0 3.4375-2.7852 6.2227-6.2227 6.2227h-12.551c-3.4375 0-6.2227-3.4375-6.2227-6.2227v-0.050782c0-3.4375 2.7852-6.2227 6.2227-6.2227z"/>
  <path d="m29.34 62.176-19.25 19.246c-2.3438 2.3438-2.3438 6.1445 0 8.4883s6.1445 2.3438 8.4883 0l19.25-19.25h-0.003906c2.3438-2.3438 2.3438-6.1445 0-8.4844-2.3398-2.3438-6.1406-2.3438-8.4844 0z"/>
  <path d="m49.977 66.668c-1.6602 0-3.25 0.65625-4.4219 1.8281-1.1719 1.1719-1.8281 2.7617-1.8281 4.4219v20.832c0 3.4531 2.7969 6.25 6.25 6.25 3.4492 0 6.25-2.7969 6.25-6.25v-20.832c0-3.4531-2.8008-6.25-6.25-6.25z"/>
  <path d="m70.746 62.262c-2.3438-2.3438-6.1406-2.3438-8.4844 0s-2.3438 6.1406 0 8.4844l10.742 10.742c2.3438 2.3438 6.1406 2.3438 8.4844 0s2.3438-6.1406 0-8.4844z"/>
  <path d="m93.352 43.75h-20.035c-3.5547-0.10938-6.5312 2.6797-6.6484 6.2344 0.11719 3.5547 3.0938 6.3438 6.6484 6.2344h20.035c3.5547 0.10938 6.5312-2.6797 6.6484-6.2344-0.11719-3.5547-3.0938-6.3438-6.6484-6.2344z"/>
  <path d="m70.477 37.824 6.9336-6.75v0.003906c2.3438-2.3438 2.3438-6.1445 0-8.4883s-6.1445-2.3438-8.4883 0l-6.75 6.75h0.003906c-1.1289 1.125-1.7578 2.6523-1.7578 4.2422 0 1.5938 0.62891 3.1172 1.7578 4.2422 1.0859 1.125 2.5859 1.7578 4.1484 1.7578 1.5664 0 3.0625-0.63281 4.1523-1.7578z"/>
 </g>
</svg>
