<?xml version="1.0" encoding="UTF-8"?>
<svg width="100pt" height="100pt" version="1.1" viewBox="0 0 100 100" xmlns="http://www.w3.org/2000/svg">
 <path d="m88.094 0h-9.5234v19.047l-7.1406-2.3789-7.1445 2.3789v-19.047h-54.762v100h78.57c1.2812 0.027344 2.3438-0.98438 2.3828-2.2617v-95.477c-0.039062-1.2773-1.1016-2.2891-2.3828-2.2617zm-64.285 91.668c0.003906 0.31641-0.12109 0.62109-0.34375 0.84375-0.22266 0.22266-0.52734 0.34766-0.84766 0.34375h-4.7617c-0.31641 0.003906-0.62109-0.12109-0.84375-0.34375-0.22266-0.22266-0.34766-0.52734-0.34375-0.84375v-83.336c-0.003907-0.31641 0.12109-0.62109 0.34375-0.84375 0.22266-0.22266 0.52734-0.34766 0.84375-0.34375h4.7617c0.32031-0.003906 0.625 0.12109 0.84766 0.34375 0.22266 0.22266 0.34766 0.52734 0.34375 0.84375zm46.43-36.906h-30.953c-1.9727 0-3.5703-1.5977-3.5703-3.5703s1.5977-3.5742 3.5703-3.5742h30.953c1.9727 0 3.5703 1.6016 3.5703 3.5742s-1.5977 3.5703-3.5703 3.5703zm0-14.285h-30.953c-1.9727 0-3.5703-1.5977-3.5703-3.5703s1.5977-3.5742 3.5703-3.5742h30.953c1.9727 0 3.5703 1.6016 3.5703 3.5742s-1.5977 3.5703-3.5703 3.5703z" fill="#ffb251"/>
</svg>
