<?xml version="1.0" encoding="UTF-8"?>
<svg width="100pt" height="100pt" version="1.1" viewBox="0 0 100 100" xmlns="http://www.w3.org/2000/svg">
 <g fill="#ffb251">
  <path d="m34.645 17.125c-0.76953-0.60547-1.8516-0.60547-2.625 0l-31.25 26c-0.48828 0.39844-0.76953 0.99609-0.76953 1.625v55.25h66.668v-55.25c0-0.62891-0.28516-1.2266-0.77344-1.625zm13.273 51.625h-8.3359v8.332c0 3.4531-2.7969 6.25-6.25 6.25-3.4492 0-6.25-2.7969-6.25-6.25v-8.332h-8.332c-3.4531 0-6.25-2.7969-6.25-6.25s2.7969-6.25 6.25-6.25h8.332v-8.332c0-3.4531 2.8008-6.25 6.25-6.25 3.4531 0 6.25 2.7969 6.25 6.25v8.332h8.3359c3.4492 0 6.25 2.7969 6.25 6.25s-2.8008 6.25-6.25 6.25z"/>
  <path d="m77.082 4.168v-1.043c0-1.7266-1.3984-3.125-3.125-3.125-1.7227 0-3.125 1.3984-3.125 3.125v96.875h6.25v-79.168h22.918v-16.664z"/>
 </g>
</svg>
