<?xml version="1.0" encoding="UTF-8"?>
<svg width="320px" height="80px" viewBox="0 0 320 80" version="1.1" xmlns="http://www.w3.org/2000/svg" xmlns:xlink="http://www.w3.org/1999/xlink">
    <title>website-logos</title>
    <g id="website-logos" stroke="none" stroke-width="1" fill="none" fill-rule="evenodd">
        <g id="AUW" transform="translate(185.000000, 0.000000)">
            <path d="M112.227557,72.2120766 C112.728268,69.7802177 113.269591,67.1877339 113.786867,64.589896 C113.855802,64.2440174 113.979777,64.1310446 114.328725,64.1449654 C115.00952,64.1722716 115.690849,64.1529966 116.425082,64.1529966 C115.455724,68.208772 114.494916,72.2206433 113.525557,76.2780249 C112.708496,76.2780249 111.904794,76.2898041 111.103764,76.2641041 C111.00437,76.2598208 110.848867,76.070819 110.822682,75.9471379 C110.311284,73.5002873 109.816452,71.0496887 109.316276,68.6006965 C109.304519,68.5444778 109.278869,68.4904008 109.239325,68.3763572 C108.716171,71.0427283 108.204773,73.645385 107.687497,76.2780249 C106.806845,76.2780249 105.971615,76.2887332 105.136385,76.2630333 C105.037525,76.2598208 104.888968,76.0654648 104.858509,75.9358942 C104.324133,73.7331932 103.802582,71.5272797 103.28103,69.3213662 C102.895211,67.6894186 102.512063,66.0569356 102.128381,64.4244525 C102.110212,64.3511005 102.102731,64.2756069 102.08189,64.1529966 C102.863148,64.1529966 103.619825,64.1406821 104.375967,64.1669175 C104.480705,64.1712008 104.64743,64.3511005 104.672546,64.4721045 C105.187685,67.0126529 105.687327,69.5569492 106.18964,72.0996393 C106.215825,72.2345641 106.244147,72.3694889 106.250559,72.4037555 C106.738979,70.0682714 107.241827,67.6508687 107.747881,65.2334659 C107.974457,64.1524612 107.97606,64.1524612 109.070462,64.1529966 C109.535904,64.1529966 110.00188,64.1546029 110.466788,64.1567446 C110.497247,64.1578154 110.526638,64.1690591 110.648475,64.1926174 C111.181783,66.9018218 111.723106,69.6474345 112.227557,72.2120766 M57.9311921,64.1797674 L57.9311921,64.6584292 C57.9311921,67.2707234 57.9343984,69.8830175 57.9285203,72.4953116 C57.9226421,74.7729708 56.9607649,75.9492796 54.7126441,76.312827 C53.4413631,76.5184267 52.1674102,76.4472163 50.9912481,75.828811 C50.0149427,75.3169534 49.38331,74.5009796 49.3635381,73.3910624 C49.3106349,70.3761356 49.3277349,67.3596024 49.3186505,64.3430693 C49.3186505,64.2986298 49.3426975,64.2547257 49.3624694,64.1824445 L51.7741093,64.1824445 L51.7741093,64.6814521 C51.7741093,67.0918945 51.7719718,69.5018014 51.7767812,71.9122437 C51.7773155,72.2527682 51.7847968,72.5981115 51.8360969,72.9348881 C51.9766379,73.8670472 52.5735361,74.3216153 53.6155697,74.3205444 C54.6789784,74.3184028 55.296183,73.8509847 55.4442052,72.916684 C55.4800084,72.687526 55.488024,72.4524784 55.488024,72.2195725 C55.4912303,69.7159678 55.4912303,67.2123631 55.4912303,64.7092938 L55.4912303,64.1797674 L57.9311921,64.1797674 M3.29977319,76.1591626 L0.79835808,76.1591626 C0.851795702,75.9680191 0.891339543,75.8047173 0.943174036,75.6467696 C2.14658929,71.9609666 3.35695144,68.2767698 4.54593854,64.5861481 C4.66243256,64.2247424 4.81847042,64.1005259 5.1941369,64.1219425 C5.79744766,64.1567446 6.40396468,64.1144467 7.00780981,64.1438946 C7.14407575,64.1503196 7.35622311,64.2863152 7.39416382,64.4067838 C8.62269476,68.2805178 9.83412566,72.1596059 11.0460909,76.0376232 C11.0551753,76.0649294 11.0444878,76.0981252 11.0412816,76.1543438 L8.50139136,76.1543438 C8.27000645,75.3742429 8.02045276,74.5796857 7.80403038,73.7770973 C7.7137208,73.4435332 7.57692049,73.2973647 7.20339151,73.3102146 C6.32060198,73.342875 5.4346062,73.3385917 4.55181668,73.3118209 C4.21729716,73.3011126 4.09118438,73.4296124 4.00942481,73.727839 C3.78872743,74.5347108 3.54237999,75.3340867 3.29977319,76.1591626 M5.93050734,66.8755865 C5.52117515,68.4352529 5.1471118,69.8632071 4.77251406,71.2927676 L7.03025361,71.2927676 C6.66901528,69.8439322 6.31525822,68.4234738 5.93050734,66.8755865 M94.6476482,67.6540812 L94.6476482,63.390029 C95.3466123,63.498183 96.0338201,63.5859912 96.7092716,63.7300181 C96.8097344,63.7519701 96.9176784,64.0346697 96.9187471,64.1969008 C96.929969,67.0099758 96.9192815,69.8230509 96.9315721,72.6366614 C96.9347784,73.4751227 96.9802004,74.3141194 97.029363,75.1509745 C97.0480662,75.4732948 97.1314288,75.7913319 97.1966227,76.1779021 C96.5756776,76.1779021 95.9515261,76.1966417 95.3295122,76.1602334 C95.2119494,76.1538084 95.1082805,75.9267921 94.9639989,75.7640257 C94.9650676,75.7640257 94.8939956,75.7843715 94.836283,75.822386 C93.0947508,76.9633573 90.8188425,76.4043831 89.9210904,74.5314983 C89.0650197,72.7485634 89.1125792,70.917441 89.9937656,69.1414665 C90.7418923,67.6331999 92.7367188,66.6335785 94.6476482,67.6540812 M94.6513888,71.7473356 C94.6513888,71.1888969 94.6300137,70.6293873 94.6599388,70.0725547 C94.6770388,69.7288177 94.5397042,69.5307139 94.2607598,69.3636641 C93.3036919,68.7870212 92.3893742,69.1296874 92.1056205,70.2165816 C91.8395011,71.2365489 91.8277448,72.2773974 92.0420297,73.3059313 C92.2621927,74.3655194 93.3533889,74.778325 94.2805317,74.1957925 C94.538101,74.0340969 94.6711607,73.8392055 94.6578013,73.5147435 C94.6337544,72.9263214 94.6513888,72.3368285 94.6513888,71.7473356 M31.6842351,76.1473834 C31.6842351,75.6414154 31.6842351,75.1616828 31.6842351,74.683021 C31.6831664,73.1908169 31.6938539,71.6980774 31.6778226,70.2053379 C31.6660663,69.109877 31.1958152,68.7977295 30.1479035,69.1532457 C30.0308751,69.1928664 29.9149154,69.2383768 29.8005589,69.2844225 C29.2031263,69.5280368 28.9118913,69.8915842 28.9375413,70.6176081 C29.0027352,72.448195 28.9589164,74.2825299 28.9589164,76.146848 L26.5755984,76.146848 L26.5755984,63.8906429 C27.2328812,63.7359077 27.9932985,63.5576142 28.8696755,63.3509436 L28.8696755,67.9019787 C29.5103926,67.6385541 30.0431657,67.3440754 30.6128108,67.2086151 C31.0969556,67.0940361 31.6356069,67.0881466 32.1299049,67.1657819 C33.2045355,67.3317608 33.8511307,67.9956765 33.8847964,69.084177 C33.9553341,71.2734926 33.9387684,73.4665561 33.9585403,75.6574779 C33.9596091,75.8106068 33.9585403,75.962665 33.9585403,76.1473834 L31.6842351,76.1473834 M125.168012,67.460796 C126.002173,67.3660274 126.752437,67.2808963 127.544383,67.1909464 C128.209147,69.469141 128.862689,71.7098565 129.541347,74.0351677 C129.630588,73.6186142 129.681888,73.2689876 129.782885,72.9327464 C130.316192,71.1487407 130.858584,69.3684828 131.412732,67.5898313 C131.447467,67.4790002 131.60778,67.3360441 131.714121,67.3317608 C132.426444,67.3092733 133.138768,67.3205171 133.912544,67.3205171 C133.753835,67.7691956 133.613294,68.1766471 133.467409,68.5819569 C132.433925,71.4592819 131.396167,74.3344652 130.368027,77.2150027 C129.855026,78.6488465 128.935364,79.6195555 127.408117,79.9590092 C127.044207,80.039857 126.798928,80.0345028 126.644493,79.6281221 C126.507159,79.2677873 126.295546,78.9363648 126.080192,78.5219529 C127.395826,78.2649533 128.247622,77.5089461 128.627564,76.2068146 C128.439997,76.1891459 128.27541,76.1741542 128.07769,76.1554147 C127.116348,73.2829084 126.152867,70.405048 125.168012,67.460796 M40.4966334,70.6909601 C40.5324366,70.605829 40.5420554,70.5924436 40.5431242,70.5785228 C40.6355712,69.1982206 40.1177607,68.7527546 38.7946452,69.1602061 C38.1672875,69.3529558 37.5805424,69.682772 36.9264659,69.9718966 C36.6389715,69.488416 36.3252926,68.9599605 35.9827575,68.3833176 C37.64253,67.4163565 39.3300901,66.7663616 41.2506383,67.3553191 C42.2632812,67.6663957 42.8099481,68.4363238 42.8222388,69.5307139 C42.8350638,70.7284392 42.8003293,71.9245583 42.7837637,73.1217482 C42.767198,74.3066236 42.8222388,74.460288 43.5912061,75.2328931 C43.240121,75.6376675 42.8975858,76.0547565 42.52566,76.4445393 C42.4540535,76.5189621 42.2237374,76.5462683 42.1409091,76.4884434 C41.7796707,76.2341208 41.4440825,75.9401775 41.0742941,75.6403446 C40.1679921,76.551087 39.0099988,76.6496035 37.791621,76.3840373 C36.6293527,76.1307855 35.9693981,75.3790616 35.8325977,74.2482633 C35.6605286,72.830482 36.1222297,71.7955231 37.1925852,71.2429739 C38.1010248,70.7728787 39.0922927,70.7118413 40.0878356,70.6914955 C40.2241016,70.6888184 40.3614362,70.6909601 40.4966334,70.6909601 M40.4950303,72.2907828 C40.0498949,72.330939 39.6453721,72.3304036 39.2579493,72.4112514 C38.3927942,72.5932928 38.0037683,73.4344311 38.3847786,74.2343425 C38.5963916,74.6771314 39.0233582,74.8757707 39.5502531,74.7751125 C40.0162292,74.6883751 40.4816709,74.3253632 40.4907553,74.0067907 C40.5057178,73.4665561 40.4950303,72.9252506 40.4950303,72.2907828 M122.200086,75.6403446 C121.144693,76.6415723 119.881962,76.6833347 118.569534,76.2812374 C117.619948,75.9894358 117.096259,75.284293 116.965871,74.3028757 C116.691736,72.2554453 117.763695,70.9881159 119.951966,70.7723433 C120.505579,70.7171955 121.062934,70.6989913 121.696704,70.6588351 C121.662504,70.2947523 121.700979,69.9033633 121.570057,69.5794367 C121.480816,69.3588454 121.176221,69.1291519 120.934149,69.084177 C120.110675,68.9289064 119.390336,69.2935246 118.690303,69.6731345 C118.500065,69.7759343 118.319981,69.8958675 118.090199,70.035611 C117.769573,69.4953764 117.454825,68.9669209 117.106946,68.3801051 C118.826035,67.3976169 120.564361,66.7074659 122.53995,67.4233169 C123.49007,67.7681247 123.938412,68.5294861 123.948031,69.5226826 C123.958184,70.7188017 123.927725,71.9159917 123.908487,73.1121108 C123.896731,73.9072034 123.911159,74.6883751 124.750664,75.1959494 C124.359501,75.6456988 124.007347,76.0729606 123.624733,76.4707746 C123.558471,76.5387725 123.323345,76.5360954 123.23357,76.4713101 C122.885691,76.2239479 122.563462,75.9380358 122.200086,75.6403446 M121.619754,72.2854286 C121.167137,72.3304036 120.761545,72.3320098 120.37252,72.4155347 C119.512174,72.5991823 119.127957,73.4499582 119.516449,74.2439799 C119.725924,74.6728481 120.124569,74.8623853 120.641845,74.7793958 C121.098737,74.7065793 121.603188,74.3462444 121.61441,74.0410573 C121.633647,73.485831 121.619754,72.9300694 121.619754,72.2854286 M24.7127629,71.7291315 C24.6892503,72.6275594 24.5764969,73.5013581 24.1511335,74.3044819 C23.3511723,75.8148902 22.0633256,76.4627434 20.3933999,76.3561956 C18.8250056,76.255002 17.7044187,75.4663344 17.113933,74.001972 C16.5325316,72.5606324 16.5400129,71.0850262 17.0834735,69.6361908 C17.7199156,67.9367808 19.2754848,66.9874884 21.0325138,67.1657819 C22.8777149,67.3515712 24.2590775,68.6033735 24.5684813,70.3889855 C24.6443627,70.8301682 24.6657378,71.2820592 24.7127629,71.7291315 M22.2353947,71.8201522 C22.1343976,71.1075137 22.0905787,70.4692979 21.9452284,69.8546405 C21.7918624,69.1998268 21.3184051,68.8769711 20.6963912,68.8775058 C20.1133867,68.8791127 19.6527544,69.218031 19.4897697,69.8519634 C19.1605939,71.140174 19.1798315,72.4423055 19.4908384,73.7305161 C19.6367231,74.3376777 20.1133867,74.6755252 20.7113537,74.6867689 C21.2868769,74.698548 21.7042247,74.4383359 21.8720189,73.8092222 C22.0510349,73.1415586 22.1253132,72.4449826 22.2353947,71.8201522 M82.9490838,72.4637221 C82.8005273,73.9725241 83.8099639,74.9416269 85.234611,74.6396523 C85.853953,74.5090108 86.4326824,74.1840134 87.0830183,73.9254075 C87.3160063,74.2836007 87.6008289,74.7215709 87.9048889,75.1895244 C86.4198574,76.3727935 84.7894756,76.7679305 83.0158809,76.1431001 C81.3742771,75.564851 80.6443192,74.2396966 80.450875,72.5750886 C80.3338466,71.5760026 80.3872842,70.586554 80.7298194,69.6335137 C81.5564994,67.3339025 84.2465493,66.394783 86.3263416,67.6717499 C87.0536276,68.1177513 87.5185349,68.7907691 87.6986197,69.5938929 C87.9032858,70.5083833 87.9748922,71.4523215 88.1165019,72.4637221 L82.9490838,72.4637221 Z M85.592643,70.7530683 C85.6076056,70.0639881 85.6001243,69.4145286 84.977576,69.0151084 C84.53725,68.7324088 84.0440207,68.7431171 83.615451,69.0424146 C83.0329809,69.4498661 82.9405338,70.0693422 82.9629776,70.7530683 L85.592643,70.7530683 L85.592643,70.7530683 Z M67.4997328,76.1564855 L65.2061901,76.1564855 L65.2061901,75.6339196 C65.2045869,73.8311743 65.2131369,72.0289644 65.1965713,70.2262191 C65.1874869,69.1564582 64.7060139,68.867869 63.7334492,69.3111933 C63.1349478,69.5853263 62.7731751,69.9269216 62.8143221,70.7134476 C62.8992879,72.3411119 62.8405065,73.9757366 62.8405065,75.6066134 L62.8405065,76.1463126 L60.5624607,76.1463126 C60.3743602,73.3551896 60.778883,70.5255166 60.2733631,67.6738915 C60.9092708,67.4907793 61.5702942,67.2996358 62.2917021,67.0924299 C62.4140743,67.4554419 62.5257589,67.7863289 62.6459936,68.1429159 C62.9030285,67.9833619 63.1712854,67.804533 63.4512985,67.6465853 C64.2704973,67.1866631 65.1383243,67.0244321 66.0472982,67.3167691 C66.8552751,67.5780521 67.3533137,68.1289951 67.4398827,68.9990459 C67.4746171,69.3540266 67.4959922,69.7116844 67.4970609,70.0682714 C67.5024047,71.9175979 67.4997328,73.7669244 67.4997328,75.6162509 L67.4997328,76.1564855 M79.1673033,74.6246606 C79.2586816,75.0299705 79.3548694,75.4031554 79.4173914,75.781159 C79.4302164,75.8662901 79.3404412,76.0285211 79.263491,76.0568982 C78.162676,76.4514997 77.0565172,76.576787 75.9840241,75.9776566 C75.3246039,75.6082196 75.060622,74.9983809 75.0579501,74.2627195 C75.0542095,72.6634322 75.0547439,71.0625387 75.0536751,69.4621806 L75.0536751,68.9321189 C74.7501494,68.9176627 74.4925801,68.9048127 74.2002763,68.8892856 L74.2002763,67.3328316 L75.0777221,67.3328316 C75.0777221,66.7759991 75.0803939,66.2528978 75.0771877,65.7303319 C75.0739814,65.376422 75.2065067,65.1777827 75.5896545,65.1065724 C76.2079278,64.9930642 76.8139104,64.8169124 77.4145493,64.6691376 L77.4145493,67.3023129 L79.4131164,67.3023129 C79.2186034,67.8382642 79.0604281,68.3153198 78.8637776,68.7768483 C78.8290431,68.8555544 78.6361333,68.8978523 78.5137612,68.9037419 C78.1461103,68.9192689 77.7768564,68.909096 77.3482866,68.909096 C77.3482866,69.1848352 77.3482866,69.4123869 77.3482866,69.6410095 C77.3498898,70.930291 77.3370647,72.2201079 77.3589742,73.5088539 C77.3782117,74.6803439 77.7325031,74.9421623 78.868587,74.6873043 C78.943934,74.6707064 79.0198155,74.6551794 79.1673033,74.6246606 M15.5289731,74.8179458 C15.6497421,75.236641 15.7737174,75.6660446 15.9089146,76.137746 C14.9625343,76.4504288 14.0508884,76.5430558 13.1723739,76.0071045 C12.4857005,75.5873384 12.3002719,74.8977228 12.2917219,74.1583134 C12.27195,72.3389702 12.2901188,70.5190916 12.2730188,68.7008192 C12.2596593,67.2402047 12.2249249,65.7795901 12.1778998,64.3189756 C12.1677466,64.0191427 12.2249249,63.88047 12.5471538,63.822645 C13.1873365,63.708066 13.8162973,63.5415517 14.5200708,63.3787853 C14.5521333,63.7525056 14.6050366,64.0999905 14.6077085,64.4490816 C14.6205335,67.3413983 14.6242741,70.2321087 14.6338929,73.1249607 C14.6349617,73.4039124 14.6413742,73.6844703 14.6654211,73.963422 C14.7242025,74.6519669 14.8203902,74.7451292 15.5289731,74.8179458 M70.1513076,67.4779293 C70.8876781,67.3612087 71.6192391,67.244488 72.394619,67.1213423 L72.394619,76.1484543 L70.1513076,76.1484543 L70.1513076,67.4779293 M71.2628102,66.306997 C70.4788803,66.3026915 69.8504538,65.6692945 69.8531172,64.8843748 C69.8557976,64.0914238 70.5136147,63.4548143 71.3194541,63.463381 C72.1012465,63.4730185 72.7221917,64.1230134 72.7024197,64.9100747 C72.6826478,65.6960652 72.0483432,66.3112581 71.2628102,66.306997" id="Aloha-United-Way" fill="#223E77"></path>
            <polygon id="mark-bg" fill="#7599C3" points="80.0837585 56.9628966 135 56.9628966 135 0 80.0837585 0"></polygon>
            <path d="M128.428241,53.376681 C127.46583,53.376681 126.671747,52.5965801 126.671747,51.5996357 C126.671747,50.6005496 127.46583,49.8209841 128.428241,49.8209841 C129.386378,49.8209841 130.187942,50.6005496 130.187942,51.5996357 C130.187942,52.5965801 129.386378,53.376681 128.428241,53.376681 L128.428241,53.376681 Z M128.428241,50.1122503 C127.640571,50.1122503 127.016954,50.7627806 127.016954,51.5996357 C127.016954,52.4300657 127.640571,53.0896981 128.428241,53.0896981 C129.209499,53.0896981 129.844873,52.4300657 129.844873,51.5996357 C129.844873,50.7627806 129.209499,50.1122503 128.428241,50.1122503 L128.428241,50.1122503 Z M128.824214,52.5869426 L128.651076,52.2769368 C128.516413,52.0354642 128.423432,51.9010748 128.314419,51.7886375 C128.27541,51.7511584 128.247088,51.7324188 128.183497,51.7270646 L128.183497,52.5869426 L127.859131,52.5869426 L127.859131,50.6005496 L128.465648,50.6005496 C128.90918,50.6005496 129.111708,50.8575492 129.111708,51.1691613 C129.111708,51.4759546 128.913989,51.7142147 128.618479,51.7142147 C128.69062,51.7511584 128.81887,51.9417664 128.923074,52.1104224 L129.215377,52.5869426 L128.824214,52.5869426 Z M128.365719,50.8661159 L128.183497,50.8661159 L128.183497,51.4973712 L128.3561,51.4973712 C128.529238,51.4973712 128.615273,51.4759546 128.676726,51.4122401 C128.732301,51.3538798 128.767036,51.273032 128.767036,51.1734446 C128.767036,50.9731991 128.65642,50.8661159 128.365719,50.8661159 L128.365719,50.8661159 Z" id="registered-mark" fill="#FFFFFE"></path>
            <path d="M130.22428,28.1109405 C130.22428,40.6584119 120.06365,50.8339909 107.541612,50.8339909 C95.0094209,50.8339909 84.8616163,40.6584119 84.8616163,28.1109405 C84.8616163,15.5597212 95.0094209,5.3841422 107.541612,5.3841422 C120.06365,5.3841422 130.22428,15.5597212 130.22428,28.1109405" id="circle" fill="#FFFFFE"></path>
            <path d="M123.313726,37.3072441 C122.508956,37.6038645 121.016443,39.0805415 120.335648,39.6812781 L120.15396,39.7160802 C120.390688,39.4462306 121.424172,38.1382095 121.692429,37.6889956 C122.508956,36.3365351 120.971021,35.0568911 119.276514,36.0324188 C118.638469,36.3981079 117.568113,37.5315833 117.046562,37.9352869 L116.879837,37.9743723 C117.111756,37.750033 118.064549,36.489664 118.329599,36.0902438 C119.063832,34.9888933 117.512004,33.9517927 116.176597,34.7570582 C115.233958,35.3262053 114.458044,36.1057708 113.665564,36.7214991 L113.530366,36.7563011 C113.749461,36.5458827 114.272615,35.9210523 114.476212,35.6988547 C115.266555,34.8148831 114.134746,33.7922388 112.945759,34.4085024 C111.807537,34.9953183 110.155781,36.636368 108.361345,37.7907246 C109.198178,38.2463636 110.665575,38.310078 112.992784,39.3054162 C115.324267,40.3045022 116.071325,42.629278 114.557438,44.4641483 C113.145616,46.1646292 111.007576,45.5879863 109.160772,45.0156267 C107.020061,44.3490339 106.265522,43.6492453 103.687156,42.7540299 C102.003871,42.1672141 101.31506,42.1800641 101.348192,41.6901586 C101.378651,41.1402864 102.827879,41.4701026 104.190004,41.9658977 C107.966441,43.3349562 112.984768,46.4542892 114.214368,43.0945544 C115.186398,40.445852 110.835507,39.300062 109.172528,38.982025 C106.846923,38.5376298 105.250207,36.8307239 103.237212,35.7449005 C100.204627,34.1038508 97.8672649,34.0626238 96.1332141,34.3779837 C94.2693098,34.7131541 91.6070474,36.2417665 89.9964375,37.2071213 C88.8822631,37.8651474 88.960282,38.8744064 90.0546845,40.4410333 C93.9246371,45.955817 100.311502,49.555418 107.541078,49.555418 C115.213652,49.555418 121.940914,45.4819739 125.708801,39.4039327 C126.539221,38.0595034 125.227862,36.6229826 123.313726,37.3072441" id="hand" fill="#253666"></path>
            <path d="M112.83354,20.9941925 C113.145616,20.6724076 113.665564,20.6724076 113.982449,20.9941925 L113.982449,20.9941925 L114.843329,21.8567475 C115.165023,22.168895 115.165023,22.6898546 114.843329,23.0132458 L114.843329,23.0132458 L110.11303,27.7479286 C109.668964,28.2260549 109.216882,29.0484538 109.199781,29.683457 L109.199781,29.683457 L109.199781,34.7163664 C109.199781,35.1623678 108.836406,35.5285923 108.39127,35.5285923 L108.39127,35.5285923 L106.711726,35.5285923 C106.26285,35.5285923 105.89894,35.1623678 105.89894,34.7163664 L105.89894,34.7163664 L105.89894,29.683457 C105.880771,29.0484538 105.435635,28.2260549 104.988897,27.7479286 L104.988897,27.7479286 L100.259133,23.0132458 C99.941179,22.6898546 99.941179,22.168895 100.259133,21.8567475 L100.259133,21.8567475 L101.117341,20.9941925 C101.436898,20.6724076 101.944021,20.6724076 102.265716,20.9941925 L102.265716,20.9941925 L106.542863,25.2834092 C106.820739,25.5559359 107.020595,25.7310169 107.549628,25.7310169 C108.082935,25.7310169 108.276914,25.5559359 108.563339,25.2834092 L108.563339,25.2834092 Z M107.550162,18.909283 C108.810221,18.909283 109.841567,19.9362107 109.841567,21.2115714 C109.841567,22.4799716 108.810221,23.5047576 107.550162,23.5047576 C106.278881,23.5047576 105.265704,22.4799716 105.265704,21.2115714 C105.265704,19.9362107 106.278881,18.909283 107.550162,18.909283 Z" id="person" fill="#D33C33"></path>
            <path d="M107.54375,6.71893402 C119.324608,6.71893402 128.908645,16.3424992 128.908645,28.1585925 C128.908645,31.1199778 128.31335,33.9475092 127.222688,36.5212533 C127.046879,36.9040757 126.857175,36.9324527 126.601743,36.80663 C126.342036,36.6995468 124.465307,35.8691168 124.146285,35.7309795 C123.822987,35.5917714 123.88925,35.3245988 123.946962,35.1955636 C124.870899,33.031948 125.3839,30.6552368 125.3839,28.1585925 C125.3839,18.2860589 117.378944,10.2623164 107.54375,10.2623164 C97.6973333,10.2623164 89.6945149,18.2860589 89.6945149,28.1585925 C89.6945149,30.3355936 90.0851439,32.4151489 90.8017425,34.3522836 C90.8514395,34.4920271 91.0010648,34.7575934 90.6574609,34.9107223 C90.5101734,34.9763108 90.0558326,35.1848616 89.5644972,35.4116861 L89.1405916,35.6076742 C88.6501622,35.8347623 88.199898,36.044499 88.0598581,36.1121956 C87.7440417,36.2583641 87.6542665,35.998152 87.5992257,35.8653689 C86.6790299,33.4742015 86.1670975,30.8736865 86.1670975,28.1585925 C86.1670975,16.3424992 95.7522038,6.71893402 107.54375,6.71893402 Z M107.549093,11.6597519 C116.618527,11.6597519 123.997194,19.062412 123.997194,28.1639467 C123.997194,30.4887225 123.524805,32.7085568 122.640412,34.7067289 C122.544225,34.9407056 122.417577,34.9771139 122.216118,34.8903765 C122.022139,34.8068517 120.998274,34.3458586 120.768492,34.2516254 C120.537107,34.1563214 120.602301,33.9469737 120.64612,33.8554176 C121.406003,32.108891 121.824954,30.189425 121.824954,28.1639467 C121.824954,20.2590665 115.417249,13.8405008 107.549093,13.8405008 C99.662769,13.8405008 93.25827,20.2590665 93.25827,28.1639467 C93.25827,29.8553255 93.5446956,31.4669273 94.0876219,32.9741231 C94.1228907,33.0758521 94.1822065,33.2798455 93.9331871,33.3922829 C93.6927178,33.5116806 92.7762626,33.9303758 92.5064026,34.0626236 C92.2290614,34.190588 92.1440955,33.9758862 92.1029486,33.8677322 C91.4456658,32.0837264 91.0860306,30.1669375 91.0860306,28.1639467 C91.0860306,19.062412 98.4636288,11.6597519 107.549093,11.6597519 Z M107.543215,15.2614946 C114.634388,15.2614946 120.399238,21.0455924 120.399238,28.1585925 C120.399238,29.9699045 120.027847,31.6934083 119.353999,33.2594997 C119.253001,33.4688473 119.12582,33.5213181 118.927566,33.4367224 C118.730381,33.35641 118.052258,33.0539 117.87538,32.9768001 C117.712395,32.8991648 117.719342,32.7080214 117.764764,32.6127173 C118.354715,31.2474068 118.689769,29.7396757 118.689769,28.1585925 C118.689769,21.9970265 113.682664,16.9796442 107.543215,16.9796442 C101.389339,16.9796442 96.3923865,21.9970265 96.3923865,28.1585925 C96.3923865,29.3584596 96.5740744,30.5160287 96.9310378,31.6018521 C97.0111942,31.8267268 97.0469974,31.9493371 96.776603,32.083191 C96.6968028,32.1222764 96.5848213,32.1748661 96.4622513,32.2316599 L96.0843681,32.4053527 C95.9622137,32.4612541 95.8510634,32.5120592 95.7725101,32.5484674 C95.5448658,32.6518027 95.4395937,32.5291925 95.3749342,32.3246636 C94.9233863,31.0182488 94.6839857,29.6186717 94.6839857,28.1585925 C94.6839857,21.0455924 100.44563,15.2614946 107.543215,15.2614946 Z" id="sun" fill="#F1AB46"></path>
            <polygon id="words-bg" fill="#223E77" points="0 56.9628966 80.0837585 56.9628966 80.0837585 0 0 0"></polygon>
            <path d="M65.7630101,33.9416196 C66.0171357,33.951614 66.0745052,33.9869911 66.1404131,34.1944064 L66.1659298,34.2805378 L68.7068887,43.8484198 L71.1741037,34.279467 C71.2572289,34.0277026 71.2854651,33.9654621 71.4945066,33.9468423 L71.5818328,33.9416196 L74.5444146,33.9416196 C74.9093935,33.9416196 74.965503,33.983382 74.965503,34.4234939 C74.965503,35.5986723 74.7052519,36.1018988 73.9907265,36.2768701 L73.8598786,36.3044099 L73.4558902,36.3065516 C73.4558902,36.3065516 69.8429726,48.7132086 68.9676643,50.8639742 C68.1367093,52.9049796 66.5330462,53.3375956 65.3814655,53.3375956 C64.2341597,53.3375956 62.0394765,52.6677904 62.0362703,52.0542038 C62.0362703,51.9642539 62.1394049,51.4925525 62.2831521,51.0652906 C62.3830805,50.7601036 62.6027091,50.4120832 63.427786,50.4795456 C63.427786,50.4795456 63.6334624,50.5111686 63.9041688,50.5506974 L64.1913428,50.591983 C64.5892527,50.6482016 65.0194256,50.7044203 65.1484774,50.7044203 C66.1780423,50.7044203 66.8544092,50.1623695 67.2635606,49.0097091 L67.3330074,48.799946 L67.5205735,48.1221095 C66.2882637,44.6935356 63.977608,36.602319 63.8954775,36.3144403 L63.8932277,36.3065516 L63.4785517,36.3044099 C62.6577498,36.166808 62.3590335,35.6731546 62.3590335,34.4234939 C62.3590335,34.020058 62.4129165,33.9513463 62.6993192,33.942696 L62.7833283,33.9416196 L65.7630101,33.9416196 Z M56.5813578,33.4806265 C59.4751535,33.4806265 60.7920239,34.753427 60.8629505,37.5986717 L60.8659864,37.8464077 L60.8659864,42.6453403 C60.8659864,43.8725135 61.0054586,44.5391063 61.1459995,45.0654201 C62.2740677,45.133418 62.605381,45.6158277 62.605381,46.9784611 C62.605381,47.3916374 62.5657676,47.4480557 62.2570562,47.4542906 L62.1741394,47.4549813 L59.1244542,47.4549813 C58.7229322,47.4549813 58.6055338,47.1242273 58.5045272,46.6366416 L58.4794621,46.5115785 L58.4142682,46.1651644 L58.2176178,46.3878974 C57.6939291,46.9650757 56.8277052,47.9218639 55.0851044,47.9218639 C52.7867522,47.9218639 51.3626396,46.32686 51.3626396,43.7515095 C51.3626396,39.3521184 55.5551384,39.1652813 57.7484773,39.1574451 L57.9969204,39.1571058 L57.9969204,38.2056717 C57.9969204,37.0416776 57.8280575,36.0591894 56.1447724,36.0591894 C55.5045897,36.0591894 53.9842893,36.3504557 53.6257229,36.3777619 C52.7456053,36.447366 52.6066674,36.0318832 52.5446798,35.8498418 C52.4110857,35.4504216 52.319173,35.0156639 52.319173,34.941241 C52.319173,34.3779835 54.5111843,33.4806265 56.5813578,33.4806265 Z M36.051692,29.2952805 C36.3568208,29.2952805 36.3728521,29.3225867 36.4150678,29.6352696 L36.4150678,29.6352696 L38.3003471,42.0301474 L40.8119154,29.715582 C40.8861937,29.3852303 40.9102406,29.2952805 41.5060701,29.2952805 L41.5060701,29.2952805 L43.1246957,29.2952805 C43.5073091,29.2952805 43.5602123,29.3648845 43.6147187,29.6952361 L43.6147187,29.6952361 L46.0236867,42.0301474 L48.0137038,29.6352696 C48.0671414,29.3225867 48.0762258,29.2952805 48.3866984,29.2952805 L48.3866984,29.2952805 L51.9253377,29.2952805 C52.2219166,29.3161617 52.2839042,29.3600658 52.2839042,29.7926818 C52.2839042,31.1504965 51.9627441,31.6559291 50.9944544,31.7635477 L50.9944544,31.7635477 L50.6417661,31.7737206 L47.5060464,47.0293256 C47.4194774,47.380023 47.3687117,47.4549813 47.0443453,47.4549813 L47.0443453,47.4549813 L44.5985053,47.4549813 C44.2068076,47.4549813 44.1993263,47.431423 44.1325293,47.036286 L44.1325293,47.036286 L42.1147246,35.1746824 L39.7330098,47.0293256 C39.6646096,47.431423 39.6512502,47.4549813 39.2707744,47.4549813 L39.2707744,47.4549813 L36.8714251,47.4549813 C36.5438525,47.4549813 36.4968274,47.380023 36.4081209,47.0293256 L36.4081209,47.0293256 L33.6373802,31.7817519 L33.2724012,31.7635477 C32.3035772,31.6559291 31.9792108,31.1553153 31.9792108,29.7926818 C31.9792108,29.3306179 32.0385265,29.2952805 32.4195368,29.2952805 L32.4195368,29.2952805 Z M54.2354462,43.5587598 C54.2354462,44.6820624 54.9947948,45.5387278 55.997819,45.5387278 C56.899561,45.5387278 57.5690181,44.8890232 57.9253791,44.5055125 L57.9969204,44.4277398 L57.9969204,41.2634319 C57.1884092,41.2066778 54.2354462,41.065328 54.2354462,43.5587598 Z M39.697741,22.5875902 L39.378184,22.5843777 L39.378184,11.7721892 C39.378184,11.5066229 39.3589464,11.4798521 39.1131334,11.4798521 L34.8440017,11.4798521 C34.4747478,11.4798521 34.4245164,11.5066229 34.4245164,11.9488764 C34.4245164,13.4234118 34.8151454,13.8726257 36.0773421,13.8726257 L36.384074,13.8726257 L36.384074,22.5843777 L36.0623795,22.5875902 C34.7964422,22.5875902 34.4122257,23.0416229 34.4122257,24.5156228 C34.4122257,24.9530576 34.4699384,24.9889305 34.8365205,24.9889305 L40.9337532,24.9889305 C41.2891134,24.9889305 41.3575135,24.9530576 41.3575135,24.5156228 C41.3575135,23.0608978 40.9423032,22.5875902 39.697741,22.5875902 M17.6605998,9.77401709 L17.7434282,9.77401709 C19.0312749,9.77401709 19.4464852,9.29053654 19.4464852,7.7865533 C19.4464852,7.33787479 19.3882382,7.29878943 19.0088311,7.29878943 L13.1381739,7.29878943 C12.8015168,7.29878943 12.7496823,7.35233102 12.720826,7.55632447 L12.7053291,7.7865533 C12.7053291,9.2857178 13.1130582,9.76384419 14.3816673,9.77401709 L14.4687707,9.77401709 L14.4687707,18.6469292 C14.4687707,20.3404497 14.4687707,22.6534463 11.7471925,22.6534463 C9.23241803,22.6534463 9.0309582,20.8357094 9.0309582,18.6469292 L9.0309582,9.77401709 L9.11378651,9.77401709 C10.3813269,9.76384419 10.7906591,9.2857178 10.7906591,7.7865533 L10.7735591,7.50492454 C10.7414965,7.34697686 10.6821807,7.29878943 10.3556769,7.29878943 L4.48982904,7.29878943 C4.11416255,7.29878943 4.05270929,7.33787479 4.05270929,7.7865533 C4.05270929,9.30713443 4.44654456,9.77401709 5.76217883,9.77401709 L5.83806025,9.77401709 L5.83806025,18.6469292 C5.83806025,23.4212327 7.60898306,25.4617027 11.7471925,25.4617027 C15.8880739,25.4617027 17.6605998,23.4212327 17.6605998,18.6469292 L17.6605998,9.77401709 M31.2765061,22.5875902 L31.2765061,15.2957612 C31.2765061,12.3316988 30.3012694,11.0017257 28.1268926,11.0017257 C26.1903131,11.0017257 25.1130107,12.1400199 24.2751088,12.9993624 C24.2147242,12.6909629 24.1468585,12.4398528 24.1468585,12.4398528 C24.0137988,11.8439349 23.9063892,11.4798521 23.5248445,11.4798521 L20.2240026,11.4798521 C19.8568861,11.4798521 19.8077235,11.5066229 19.8077235,11.9488764 C19.8077235,13.3447057 20.1502587,13.8437133 21.3280239,13.867807 C21.4947493,14.4508749 21.5968151,14.9332846 21.5968151,16.3237597 L21.5968151,22.5875902 C20.3565279,22.5940152 19.9723114,23.0501895 19.9723114,24.5156228 C19.9723114,24.9530576 20.0353678,24.9889305 20.4008811,24.9889305 L24.3253401,24.9889305 C24.5647407,24.9889305 24.5781001,24.9514514 24.5781001,24.6923101 L24.5813063,14.9091909 C24.9382697,14.5397539 25.7547965,13.7259218 26.8043114,13.7259218 C28.2925492,13.7259218 28.2925492,15.4247964 28.2925492,16.152962 L28.2925492,24.6923101 C28.2925492,24.9514514 28.2984274,24.9889305 28.547981,24.9889305 L32.4654932,24.9889305 C32.8208533,24.9889305 32.8849785,24.9530576 32.8849785,24.5156228 C32.8849785,23.0774957 32.4852651,22.601511 31.2765061,22.5875902 M47.0341922,25.4622381 C48.776793,25.4622381 50.1880806,25.0007096 50.1880806,24.6318081 C50.1880806,24.5654165 50.0881523,24.0514172 50.0240271,23.7970947 C49.7824891,22.7814107 49.6927139,22.4055488 47.8411003,22.636313 C47.6033028,22.6652255 47.4034461,22.6111485 47.257027,22.4671216 C46.8931168,22.1062513 46.8931168,21.3079462 46.8931168,20.6697305 L46.8931168,13.8726257 L48.5528894,13.8726257 C49.8257736,13.8726257 50.2110588,13.4234118 50.2110588,11.9488764 C50.2110588,11.5071583 50.1528118,11.4798521 49.7867641,11.4798521 L46.8931168,11.4798521 L46.8931168,7.67839929 C46.8931168,7.31752898 46.8626574,7.30093109 46.7269258,7.29932484 C46.5960037,7.29932484 45.9878835,7.37856639 45.6779453,7.42193508 C44.8261496,7.56649737 43.9064881,8.22720058 43.9064881,9.75527753 L43.9064881,11.4798521 L42.2028967,11.4798521 C41.8363146,11.4798521 41.7834114,11.5071583 41.7834114,11.9488764 C41.7834114,13.4234118 42.1681623,13.8726257 43.4308933,13.8726257 L43.9064881,13.8726257 L43.9064881,20.1980291 C43.9064881,22.7846232 43.9064881,25.4622381 47.0341922,25.4622381 M61.5334223,18.4750607 C61.5334223,13.5219283 59.8891466,11.0006549 56.6470861,11.0006549 C53.4402943,11.0006549 51.2867582,13.963111 51.2867582,18.3711901 C51.2867582,24.2243566 54.2717837,25.4622381 56.7731989,25.4622381 C58.7952785,25.4622381 61.1411901,24.5172291 61.1411901,23.9164924 C61.1411901,23.8179759 61.035918,23.3703682 60.9033927,22.9570272 C60.8066706,22.6588005 60.636739,22.3525426 59.7833401,22.3948405 C59.1292636,22.4291071 58.0717331,22.735365 57.0975652,22.735365 C55.2320578,22.735365 54.279265,21.5644104 54.2744556,19.0763328 L61.0519493,19.0763328 C61.4500596,19.0763328 61.5334223,18.97621 61.5334223,18.4750607 M54.378659,16.6926612 L54.3962934,16.4549366 C54.4801905,15.53884 54.6704284,13.3928931 56.5808234,13.3928931 C58.4447277,13.3928931 58.456484,15.5816733 58.456484,16.6926612 L54.378659,16.6926612 M73.586278,22.5875902 C73.4222245,22.0596701 73.3180211,21.5071209 73.3180211,20.1717937 L73.3180211,6.7082257 C73.3180211,6.45069066 73.2971805,6.41214071 73.050833,6.41214071 L69.1151521,6.41214071 C68.7501732,6.41214071 68.686048,6.45069066 68.686048,6.88544836 C68.686048,8.31072546 69.0643864,8.7802852 70.2464266,8.80491433 L70.322308,8.80705599 L70.322308,11.9124682 L70.0797012,11.7454184 C69.6297564,11.4348772 69.0232394,11.0017257 67.7070708,11.0017257 C64.6386825,11.0017257 63.0109725,13.699151 63.0109725,18.7872082 C63.0109725,23.0898103 64.4927978,25.4622381 67.1881915,25.4622381 C69.320887,25.4622381 70.7300371,23.8961466 70.7300371,23.8961466 L70.8989,24.47975 C71.0260815,24.9364597 71.0437159,24.9889305 71.4135043,24.9889305 L74.8714528,24.9889305 C75.2326912,24.9889305 75.2968163,24.9530576 75.2968163,24.5156228 C75.2968163,23.0641103 74.9142029,22.5875902 73.586278,22.5875902 M68.1810625,22.8745731 C66.3652521,22.8745731 66.0024106,21.2088943 66.0024106,18.3117589 C66.0024106,15.2465029 66.3796802,13.5893907 68.3317566,13.5893907 C69.1098084,13.5893907 69.6810566,13.7601884 70.322308,14.1756711 L70.322308,21.8503225 C69.9375571,22.2995364 69.3882184,22.8745731 68.1810625,22.8745731 M37.8487992,6.34949705 C36.8297438,6.34949705 36.034592,7.2002729 36.034592,8.28823799 C36.034592,9.36228227 36.8463094,10.2403643 37.8487992,10.2403643 C38.834189,10.2403643 39.6330815,9.36228227 39.6330815,8.28823799 C39.6330815,7.21740621 38.834189,6.34949705 37.8487992,6.34949705" id="United-Way" fill="#FFFFFE"></path>
        </g>
        <g id="211" fill-rule="nonzero">
            <g id="logo">
                <g id="Group">
                    <path d="M123.228359,51.4045416 C118.272436,55.4415475 111.977074,57.8637511 105.078965,57.8637511 L28.7979316,57.8637511 C20.292496,57.8637511 12.6576955,54.1631623 7.43388468,48.3095038 L7.43388468,48.3095038 L12.3898078,54.5668629 C17.6805906,60.4878049 25.3153911,64.255677 33.8208267,64.255677 L110.10186,64.255677 C116.999969,64.255677 123.295331,61.8334735 128.251254,57.7964676 L123.228359,51.4045416 L123.228359,51.4045416 Z" id="Path" fill="#539ED0"></path>
                    <path d="M139.636483,57.7964676 L139.636483,57.7964676 C132.001682,57.7964676 126.509983,54.2977292 123.228359,51.3372582 L128.251254,57.6619008 C130.394356,59.6131203 133.542036,61.7661901 137.627325,63.0445753 C139.703454,63.7174096 142.047472,64.1211102 144.659378,64.1211102 L139.636483,57.7964676 Z" id="Path" fill="#FF443B"></path>
                    <path d="M140.038315,50.3280067 C139.368595,46.3582843 138.899791,41.3793103 138.899791,35.3238015 C138.899791,28.999159 136.890633,23.2127839 133.475065,18.5029437 L127.581534,10.9671993 C127.581534,10.9671993 127.581534,10.9671993 127.581534,10.9671993 C131.532879,15.9461733 133.876897,22.2035324 133.876897,28.999159 C133.876897,50.1261564 139.636483,57.8637511 139.636483,57.8637511 L139.636483,57.8637511 L139.636483,57.8637511 L144.659378,64.1883936 C144.592405,64.1883936 141.712612,60.2186712 140.038315,50.3280067 Z" id="Path" fill="#FFB351"></path>
                    <g id="Path">
                        <path d="M139.636483,57.7964676 C139.636483,57.7964676 133.876897,50.058873 133.876897,28.9318755 C133.876897,12.9857023 121.018285,0 105.078965,0 L28.7979316,0 C12.9255833,0 0,12.9184188 0,28.9318755 C0,44.8780488 12.8586114,57.8637511 28.7979316,57.8637511 L105.078965,57.8637511 C111.977074,57.8637511 118.272436,55.4415475 123.228359,51.4045416 C126.509983,54.2977292 132.001682,57.7964676 139.636483,57.7964676 Z" fill="#005191"></path>
                        <g id="Group" transform="translate(30.539202, 14.062237)" fill="#FFFFFF">
                            <path d="M20.7612996,29.6719933 L0.468803542,29.6719933 L0.468803542,25.2985702 L9.84487428,15.4079058 C12.12192,12.783852 13.3274149,10.6980656 13.3274149,9.08326325 C13.3274149,7.80487805 13.0595272,6.86291001 12.5237517,6.19007569 C11.9879762,5.51724138 11.184313,5.18082422 10.179734,5.18082422 C9.17515494,5.18082422 8.30451987,5.58452481 7.70177242,6.52649285 C7.03205308,7.40117746 6.76416534,8.47771236 6.76416534,9.82338099 L0,9.82338099 C0,8.00672834 0.468803542,6.39192599 1.33943868,4.84440706 C2.21007383,3.29688814 3.48254057,2.15306981 5.02289506,1.2783852 C6.63022147,0.403700589 8.37149178,0 10.3136778,0 C13.4613587,0 15.8723484,0.740117746 17.6136187,2.22035324 C19.287917,3.70058873 20.1585522,5.78637511 20.1585522,8.54499579 C20.1585522,9.68881413 19.9576364,10.8326325 19.4888328,11.9091674 C19.0870012,12.9857023 18.4172819,14.1295206 17.4796748,15.3406224 C16.5420677,16.5517241 15.1356571,18.1665265 13.1264991,20.117746 L9.37607075,24.491169 L20.8282715,24.491169 L20.7612996,29.6719933 L20.7612996,29.6719933 Z" id="Path"></path>
                            <polygon id="Path" points="44.4023923 29.6719933 37.6382269 29.6719933 37.6382269 8.07401177 31.0080055 10.0252313 31.0080055 4.9116905 43.7996449 0.47098402 44.4023923 0.47098402"></polygon>
                            <polygon id="Path" points="71.5260256 29.6719933 64.7618602 29.6719933 64.7618602 8.07401177 58.1316388 10.0252313 58.1316388 4.9116905 70.9232782 0.47098402 71.5260256 0.47098402"></polygon>
                            <path d="M27.8603246,20.9251472 L27.8603246,20.9251472 C26.3869421,20.9251472 25.2484191,19.7140454 25.2484191,18.3010934 L25.2484191,18.3010934 C25.2484191,16.8208579 26.453914,15.6770395 27.8603246,15.6770395 L27.8603246,15.6770395 C29.3337072,15.6770395 30.47223,16.8881413 30.47223,18.3010934 L30.47223,18.3010934 C30.539202,19.7140454 29.3337072,20.9251472 27.8603246,20.9251472 Z" id="Path"></path>
                            <path d="M53.6445192,20.9251472 L53.6445192,20.9251472 C52.1711367,20.9251472 51.0326138,19.7140454 51.0326138,18.3010934 L51.0326138,18.3010934 C51.0326138,16.8208579 52.2381086,15.6770395 53.6445192,15.6770395 L53.6445192,15.6770395 C55.1179018,15.6770395 56.2564247,16.8881413 56.2564247,18.3010934 L56.2564247,18.3010934 C56.3233966,19.7140454 55.1179018,20.9251472 53.6445192,20.9251472 Z" id="Path"></path>
                        </g>
                    </g>
                </g>
                <g id="Group" transform="translate(5.826558, 69.503785)" fill="#005191">
                    <path d="M6.2953618,7.2666106 C6.02747406,7.60302775 5.62564247,7.87216148 5.08986699,8.07401177 C4.55409152,8.27586207 3.95134412,8.3431455 3.34859671,8.3431455 C2.67887736,8.3431455 2.07612996,8.20857864 1.60732642,7.87216148 C1.07155094,7.60302775 0.669719338,7.13204373 0.401831609,6.59377628 C0.133943869,6.05550883 4.66872592e-16,5.38267452 4.66872592e-16,4.57527334 L4.66872592e-16,4.03700589 C4.66872592e-16,3.22960471 0.133943869,2.5567704 0.401831609,2.01850294 C0.669719338,1.41295206 1.07155094,1.00925147 1.54035449,0.672834315 C2.00915803,0.336417157 2.61190543,0.201850294 3.28162477,0.201850294 C4.21923184,0.201850294 4.95592312,0.403700589 5.42472666,0.874684609 C5.8935302,1.34566863 6.22838987,1.95121951 6.36233374,2.82590412 L4.82197925,2.82590412 C4.75500732,2.3549201 4.62106345,2.08578638 4.35317571,1.81665265 C4.08528798,1.54751892 3.75042831,1.48023549 3.34859671,1.48023549 C2.81282123,1.48023549 2.41098962,1.68208579 2.07612996,2.08578638 C1.80824222,2.48948696 1.67429835,3.09503785 1.67429835,3.90243902 L1.67429835,4.37342304 C1.67429835,5.18082422 1.80824222,5.78637511 2.14310189,6.25735913 C2.47796156,6.66105971 2.87979316,6.86291001 3.48254057,6.86291001 C4.08528798,6.86291001 4.48711958,6.72834315 4.75500732,6.45920942 L4.75500732,5.11354079 L3.28162477,5.11354079 L3.28162477,4.17157275 L6.36233374,4.17157275 L6.2953618,7.2666106 L6.2953618,7.2666106 Z" id="Path"></path>
                    <path d="M10.179734,8.3431455 C9.30909882,8.3431455 8.63937947,8.07401177 8.10360403,7.53574432 C7.56782856,6.99747687 7.29994082,6.32464256 7.29994082,5.44995795 L7.29994082,5.31539108 C7.29994082,4.7098402 7.43388469,4.23885618 7.63480049,3.76787216 C7.83571629,3.29688814 8.17057594,2.96047098 8.57240756,2.69133726 C8.97423919,2.42220353 9.44304272,2.28763667 9.97881816,2.28763667 C10.7824814,2.28763667 11.3852288,2.5567704 11.8540324,3.02775442 C12.3228359,3.49873844 12.5237516,4.23885618 12.5237516,5.18082422 L12.5237516,5.78637511 L8.84029528,5.78637511 C8.90726719,6.19007569 9.0412111,6.45920942 9.30909882,6.72834315 C9.57698654,6.99747687 9.91184625,7.0647603 10.2467059,7.0647603 C10.8494533,7.0647603 11.3182568,6.86291001 11.6531166,6.39192599 L12.3898078,7.2666106 C12.1219201,7.60302775 11.8540324,7.87216148 11.4522008,8.00672834 C11.117341,8.27586207 10.6485375,8.3431455 10.179734,8.3431455 Z M9.97881816,3.56602187 C9.64395853,3.56602187 9.44304272,3.70058873 9.24212691,3.90243902 C9.0412111,4.10428932 8.90726719,4.44070648 8.90726719,4.77712363 L11.0503691,4.77712363 L11.0503691,4.64255677 C11.0503691,4.30613961 10.9833972,4.03700589 10.7824814,3.83515559 C10.5815656,3.70058873 10.3136779,3.56602187 9.97881816,3.56602187 Z" id="Shape"></path>
                    <path d="M15.3365729,1.00925147 L15.3365729,2.42220353 L16.3411519,2.42220353 L16.3411519,3.56602187 L15.3365729,3.56602187 L15.3365729,6.45920942 C15.3365729,6.66105971 15.4035448,6.79562658 15.4705168,6.93019344 C15.5374887,7.0647603 15.7384045,7.0647603 15.9393203,7.0647603 C16.1402361,7.0647603 16.27418,7.0647603 16.4081239,6.99747687 L16.4081239,8.20857864 C16.0732642,8.27586207 15.8053764,8.3431455 15.4705168,8.3431455 C14.3989658,8.3431455 13.7962184,7.80487805 13.7962184,6.66105971 L13.7962184,3.49873844 L12.9255833,3.49873844 L12.9255833,2.3549201 L13.7962184,2.3549201 L13.7962184,0.94196804 L15.3365729,0.94196804 L15.3365729,1.00925147 Z" id="Path"></path>
                    <path d="M26.1190543,5.65180824 C26.0520823,6.45920942 25.7841946,7.13204373 25.1814472,7.67031119 C24.6456717,8.14129521 23.9089805,8.41042893 22.9713734,8.41042893 C21.9667944,8.41042893 21.1631312,8.07401177 20.6273557,7.40117746 C20.0915802,6.72834315 19.7567205,5.78637511 19.7567205,4.64255677 L19.7567205,4.17157275 C19.7567205,3.431455 19.8906644,2.75862069 20.1585521,2.15306981 C20.4264399,1.54751892 20.8282715,1.14381833 21.297075,0.807401177 C21.7658785,0.47098402 22.368626,0.336417157 23.0383453,0.336417157 C23.9089805,0.336417157 24.6456717,0.605550883 25.1814472,1.0765349 C25.7172227,1.54751892 26.0520823,2.22035324 26.1190543,3.09503785 L24.5117279,3.09503785 C24.4447559,2.5567704 24.3108121,2.22035324 24.1098963,2.01850294 C23.8420086,1.81665265 23.5071489,1.68208579 23.0383453,1.68208579 C22.5025699,1.68208579 22.1007383,1.88393608 21.8328505,2.28763667 C21.5649627,2.69133726 21.4310189,3.29688814 21.4310189,4.10428932 L21.4310189,4.7098402 C21.4310189,5.58452481 21.5649627,6.19007569 21.8328505,6.59377628 C22.1007383,6.99747687 22.5025699,7.19932717 23.0383453,7.19932717 C23.5071489,7.19932717 23.9089805,7.0647603 24.1768682,6.86291001 C24.4447559,6.66105971 24.5786998,6.25735913 24.5786998,5.78637511 L26.1190543,5.65180824 L26.1190543,5.65180824 Z" id="Path"></path>
                    <path d="M26.9227175,5.31539108 C26.9227175,4.7098402 27.0566614,4.23885618 27.2575772,3.76787216 C27.458493,3.29688814 27.7933526,2.96047098 28.1951843,2.69133726 C28.5970159,2.42220353 29.0658194,2.3549201 29.6685668,2.3549201 C30.47223,2.3549201 31.0749775,2.62405383 31.6107529,3.09503785 C32.0795564,3.56602187 32.3474441,4.23885618 32.4144161,5.04625736 L32.4144161,5.44995795 C32.4144161,6.32464256 32.1465283,7.0647603 31.6777248,7.60302775 C31.2089213,8.14129521 30.5392019,8.41042893 29.6685668,8.41042893 C28.8649036,8.41042893 28.1951843,8.14129521 27.6594087,7.60302775 C27.1906052,7.0647603 26.9227175,6.32464256 26.9227175,5.38267452 L26.9227175,5.31539108 L26.9227175,5.31539108 Z M28.463072,5.38267452 C28.463072,5.92094197 28.5300439,6.39192599 28.7979316,6.66105971 C29.0658194,6.93019344 29.3337071,7.0647603 29.6685668,7.0647603 C30.0703984,7.0647603 30.3382861,6.93019344 30.5392019,6.66105971 C30.7401177,6.39192599 30.8740616,5.92094197 30.8740616,5.24810765 C30.8740616,4.7098402 30.7401177,4.30613961 30.5392019,3.96972246 C30.3382861,3.70058873 30.0034265,3.49873844 29.6685668,3.49873844 C29.2667352,3.49873844 28.9988474,3.6333053 28.7979316,3.96972246 C28.5300439,4.30613961 28.463072,4.77712363 28.463072,5.38267452 Z" id="Shape"></path>
                    <path d="M34.7584338,2.42220353 L34.8254057,3.09503785 C35.2272373,2.5567704 35.8299848,2.28763667 36.4997041,2.28763667 C37.1024515,2.28763667 37.571255,2.48948696 37.8391427,2.82590412 C38.1740024,3.16232128 38.3079463,3.70058873 38.3079463,4.44070648 L38.3079463,8.20857864 L36.7675918,8.20857864 L36.7675918,4.50798991 C36.7675918,4.17157275 36.7006198,3.90243902 36.566676,3.76787216 C36.4327321,3.6333053 36.1648444,3.56602187 35.8299848,3.56602187 C35.4281531,3.56602187 35.0932934,3.76787216 34.8254057,4.10428932 L34.8254057,8.20857864 L33.2850512,8.20857864 L33.2850512,2.42220353 L34.7584338,2.42220353 Z" id="Path"></path>
                    <path d="M40.9868236,2.42220353 L41.0537956,3.09503785 C41.4556272,2.5567704 42.0583746,2.28763667 42.7280939,2.28763667 C43.3308414,2.28763667 43.7996449,2.48948696 44.0675326,2.82590412 C44.4023923,3.16232128 44.5363362,3.70058873 44.5363362,4.44070648 L44.5363362,8.20857864 L42.9959817,8.20857864 L42.9959817,4.50798991 C42.9959817,4.17157275 42.9290098,3.90243902 42.7950658,3.76787216 C42.661122,3.6333053 42.3932343,3.56602187 42.0583746,3.56602187 C41.656543,3.56602187 41.3216833,3.76787216 41.0537956,4.10428932 L41.0537956,8.20857864 L39.5134411,8.20857864 L39.5134411,2.42220353 L40.9868236,2.42220353 Z" id="Path"></path>
                    <path d="M48.2867645,8.3431455 C47.4161293,8.3431455 46.74641,8.07401177 46.2106346,7.53574432 C45.674859,6.99747687 45.4069713,6.32464256 45.4069713,5.44995795 L45.4069713,5.31539108 C45.4069713,4.7098402 45.5409152,4.23885618 45.7418309,3.76787216 C45.9427468,3.29688814 46.2776065,2.96047098 46.6794381,2.69133726 C47.0812696,2.42220353 47.5500732,2.28763667 48.0858487,2.28763667 C48.8895119,2.28763667 49.4922593,2.5567704 49.9610628,3.02775442 C50.4298664,3.49873844 50.6307822,4.23885618 50.6307822,5.18082422 L50.6307822,5.78637511 L46.9473258,5.78637511 C47.0142977,6.19007569 47.1482416,6.45920942 47.4161293,6.72834315 C47.6840171,6.99747687 48.0188768,7.0647603 48.3537364,7.0647603 C48.9564838,7.0647603 49.4252874,6.86291001 49.760147,6.39192599 L50.4968383,7.2666106 C50.2289505,7.60302775 49.9610628,7.87216148 49.5592312,8.00672834 C49.2243716,8.27586207 48.8225399,8.3431455 48.2867645,8.3431455 Z M48.1528206,3.56602187 C47.817961,3.56602187 47.6170452,3.70058873 47.4161293,3.90243902 C47.2152135,4.10428932 47.0812696,4.44070648 47.0812696,4.77712363 L49.2243716,4.77712363 L49.2243716,4.64255677 C49.2243716,4.30613961 49.1573997,4.03700589 48.9564838,3.83515559 C48.688596,3.70058873 48.4876803,3.56602187 48.1528206,3.56602187 Z" id="Shape"></path>
                    <path d="M54.0463508,7.13204373 C54.3142385,7.13204373 54.5821263,7.0647603 54.7160701,6.86291001 C54.850014,6.66105971 54.9839579,6.52649285 54.9839579,6.25735913 L56.4573404,6.25735913 C56.4573404,6.66105971 56.3233965,6.99747687 56.1224807,7.33389403 C55.9215649,7.67031119 55.5867053,7.93944491 55.2518457,8.07401177 C54.9169859,8.27586207 54.5151543,8.3431455 54.0463508,8.3431455 C53.2426876,8.3431455 52.5729683,8.07401177 52.1041648,7.53574432 C51.6353612,6.99747687 51.3674734,6.25735913 51.3674734,5.31539108 L51.3674734,5.24810765 C51.3674734,4.37342304 51.6353612,3.6333053 52.1041648,3.09503785 C52.5729683,2.5567704 53.2426876,2.28763667 54.0463508,2.28763667 C54.783042,2.28763667 55.3857895,2.48948696 55.7876211,2.89318755 C56.1894527,3.29688814 56.4573404,3.83515559 56.4573404,4.57527334 L54.9839579,4.57527334 C54.9839579,4.23885618 54.9169859,4.03700589 54.7160701,3.83515559 C54.5151543,3.6333053 54.3142385,3.56602187 53.9793789,3.56602187 C53.6445192,3.56602187 53.3096595,3.70058873 53.1757156,3.96972246 C52.9747998,4.23885618 52.9078279,4.64255677 52.9078279,5.24810765 L52.9078279,5.38267452 C52.9078279,5.9882254 52.9747998,6.39192599 53.1757156,6.66105971 C53.3766314,6.99747687 53.6445192,7.13204373 54.0463508,7.13204373 Z" id="Path"></path>
                    <path d="M59.2701616,1.00925147 L59.2701616,2.42220353 L60.2747407,2.42220353 L60.2747407,3.56602187 L59.2701616,3.56602187 L59.2701616,6.45920942 C59.2701616,6.66105971 59.3371336,6.79562658 59.4041055,6.93019344 C59.4710775,7.0647603 59.6719933,7.0647603 59.8729091,7.0647603 C60.0738249,7.0647603 60.2077687,7.0647603 60.3417126,6.99747687 L60.3417126,8.20857864 C60.006853,8.27586207 59.7389652,8.3431455 59.4041055,8.3431455 C58.3325546,8.3431455 57.7298071,7.80487805 57.7298071,6.66105971 L57.7298071,3.49873844 L56.8591721,3.49873844 L56.8591721,2.3549201 L57.7298071,2.3549201 L57.7298071,0.94196804 L59.2701616,0.94196804 L59.2701616,1.00925147 Z" id="Path"></path>
                    <path d="M63.6903093,8.3431455 C62.8196742,8.3431455 62.1499548,8.07401177 61.6141794,7.53574432 C61.0784039,6.99747687 60.8105161,6.32464256 60.8105161,5.44995795 L60.8105161,5.31539108 C60.8105161,4.7098402 60.94446,4.23885618 61.1453759,3.76787216 C61.3462916,3.29688814 61.6811513,2.96047098 62.0829829,2.69133726 C62.4848145,2.42220353 62.9536181,2.28763667 63.4893935,2.28763667 C64.2930568,2.28763667 64.8958041,2.5567704 65.3646076,3.02775442 C65.8334112,3.49873844 66.034327,4.23885618 66.034327,5.18082422 L66.034327,5.78637511 L62.3508706,5.78637511 C62.4178426,6.19007569 62.5517865,6.45920942 62.8196742,6.72834315 C63.0875619,6.99747687 63.4224216,7.0647603 63.7572812,7.0647603 C64.3600287,7.0647603 64.8288322,6.86291001 65.1636918,6.39192599 L65.9003832,7.2666106 C65.6324954,7.60302775 65.3646076,7.87216148 64.962776,8.00672834 C64.6279164,8.27586207 64.1591129,8.3431455 63.6903093,8.3431455 Z M63.4893935,3.56602187 C63.1545338,3.56602187 62.9536181,3.70058873 62.7527023,3.90243902 C62.5517865,4.10428932 62.4178426,4.44070648 62.4178426,4.77712363 L64.5609445,4.77712363 L64.5609445,4.64255677 C64.5609445,4.30613961 64.4939725,4.03700589 64.2930568,3.83515559 C64.092141,3.70058873 63.8242531,3.56602187 63.4893935,3.56602187 Z" id="Shape"></path>
                    <path d="M66.7710182,5.31539108 C66.7710182,4.37342304 66.9719341,3.70058873 67.3737657,3.16232128 C67.7755973,2.62405383 68.3113727,2.3549201 69.0480641,2.3549201 C69.5838395,2.3549201 70.0526431,2.5567704 70.4544747,2.96047098 L70.4544747,2.80123555e-16 L71.9948292,2.80123555e-16 L71.9948292,8.27586207 L70.5884185,8.27586207 L70.5214466,7.67031119 C70.119615,8.14129521 69.6508114,8.41042893 69.0480641,8.41042893 C68.3783447,8.41042893 67.8425692,8.14129521 67.3737657,7.60302775 C66.9719341,6.99747687 66.7710182,6.25735913 66.7710182,5.31539108 Z M68.3113727,5.44995795 C68.3113727,5.9882254 68.3783447,6.39192599 68.5792605,6.72834315 C68.7801763,6.99747687 69.0480641,7.13204373 69.3829237,7.13204373 C69.8517272,7.13204373 70.186587,6.93019344 70.3875027,6.52649285 L70.3875027,4.23885618 C70.186587,3.83515559 69.8517272,3.6333053 69.3829237,3.6333053 C68.7132044,3.56602187 68.3113727,4.17157275 68.3113727,5.44995795 Z" id="Shape"></path>
                    <path d="M73.200324,7.46846089 C73.200324,7.19932717 73.2672959,6.99747687 73.4682117,6.86291001 C73.6021556,6.72834315 73.8700433,6.66105971 74.0709591,6.66105971 C74.3388468,6.66105971 74.5397627,6.72834315 74.6737065,6.86291001 C74.8076504,6.99747687 74.9415943,7.19932717 74.9415943,7.46846089 C74.9415943,7.73759462 74.8746223,7.93944491 74.6737065,8.07401177 C74.4727907,8.20857864 74.2718749,8.27586207 74.0709591,8.27586207 C73.8700433,8.27586207 73.6021556,8.20857864 73.4682117,8.07401177 C73.3342679,7.93944491 73.200324,7.73759462 73.200324,7.46846089 Z" id="Path"></path>
                    <path d="M85.3222444,7.2666106 C85.0543563,7.60302775 84.6525245,7.87216148 84.116749,8.07401177 C83.5809738,8.27586207 82.9782263,8.3431455 82.375479,8.3431455 C81.7057596,8.3431455 81.1030122,8.20857864 80.6342087,7.87216148 C80.0984331,7.60302775 79.6966016,7.13204373 79.4287138,6.59377628 C79.1608261,6.05550883 79.0268822,5.38267452 79.0268822,4.57527334 L79.0268822,4.03700589 C79.0268822,3.22960471 79.1608261,2.5567704 79.4287138,2.01850294 C79.6966016,1.41295206 80.0984331,1.00925147 80.5672367,0.672834315 C81.0360403,0.336417157 81.6387876,0.201850294 82.308507,0.201850294 C83.246114,0.201850294 83.9828054,0.403700589 84.4516086,0.874684609 C84.987384,1.34566863 85.2552722,1.95121951 85.3892158,2.82590412 L83.8488617,2.82590412 C83.7818895,2.3549201 83.6479458,2.08578638 83.3800579,1.81665265 C83.1121702,1.54751892 82.7773105,1.48023549 82.375479,1.48023549 C81.8397034,1.48023549 81.4378718,1.68208579 81.1030122,2.08578638 C80.7681525,2.48948696 80.7011806,3.09503785 80.7011806,3.90243902 L80.7011806,4.37342304 C80.7011806,5.18082422 80.8351245,5.78637511 81.1699841,6.25735913 C81.5048438,6.66105971 81.9066754,6.86291001 82.5094228,6.86291001 C83.1121702,6.86291001 83.5140018,6.72834315 83.7818895,6.45920942 L83.7818895,5.11354079 L82.308507,5.11354079 L82.308507,4.17157275 L85.3892158,4.17157275 L85.3222444,7.2666106 L85.3222444,7.2666106 Z" id="Path"></path>
                    <path d="M89.2066161,8.3431455 C88.3359812,8.3431455 87.6662621,8.07401177 87.1304866,7.53574432 C86.5947112,6.99747687 86.326823,6.32464256 86.326823,5.44995795 L86.326823,5.31539108 C86.326823,4.7098402 86.4607667,4.23885618 86.6616826,3.76787216 C86.8625985,3.29688814 87.197458,2.96047098 87.5992898,2.69133726 C88.0011216,2.42220353 88.4699248,2.28763667 89.0057002,2.28763667 C89.8093638,2.28763667 90.4121107,2.5567704 90.8809147,3.02775442 C91.3497179,3.56602187 91.5506338,4.23885618 91.5506338,5.18082422 L91.5506338,5.78637511 L87.9341494,5.78637511 C88.0011216,6.19007569 88.1350653,6.45920942 88.4029534,6.72834315 C88.6708407,6.99747687 89.0057002,7.0647603 89.3405598,7.0647603 C89.9433075,7.0647603 90.4121107,6.86291001 90.7469711,6.39192599 L91.4836616,7.2666106 C91.2827465,7.60302775 90.9478861,7.87216148 90.5460552,8.00672834 C90.1442234,8.27586207 89.7423916,8.3431455 89.2066161,8.3431455 Z M89.0726725,3.56602187 C88.7378129,3.56602187 88.5368971,3.70058873 88.3359812,3.90243902 C88.1350653,4.10428932 88.0011216,4.44070648 87.9341494,4.77712363 L90.0772511,4.77712363 L90.0772511,4.64255677 C90.0772511,4.30613961 90.0102797,4.03700589 89.8093638,3.83515559 C89.6084479,3.70058873 89.407532,3.56602187 89.0726725,3.56602187 Z" id="Shape"></path>
                    <path d="M94.3634555,1.00925147 L94.3634555,2.42220353 L95.3680341,2.42220353 L95.3680341,3.56602187 L94.3634555,3.56602187 L94.3634555,6.45920942 C94.3634555,6.66105971 94.4304269,6.79562658 94.4973992,6.93019344 C94.5643706,7.0647603 94.7652865,7.0647603 94.9662023,7.0647603 C95.1671182,7.0647603 95.3010619,7.0647603 95.4350064,6.99747687 L95.4350064,8.20857864 C95.100146,8.27586207 94.8322587,8.3431455 94.4973992,8.3431455 C93.4258483,8.3431455 92.8231006,7.80487805 92.8231006,6.66105971 L92.8231006,3.49873844 L91.9524656,3.49873844 L91.9524656,2.3549201 L92.8231006,2.3549201 L92.8231006,0.94196804 L94.3634555,0.94196804 L94.3634555,1.00925147 Z" id="Path"></path>
                    <polygon id="Path" points="105.413824 8.27586207 103.806498 8.27586207 103.806498 4.9116905 100.658817 4.9116905 100.658817 8.27586207 99.0514908 8.27586207 99.0514908 0.47098402 100.658817 0.47098402 100.658817 3.6333053 103.806498 3.6333053 103.806498 0.47098402 105.413824 0.47098402"></polygon>
                    <path d="M109.43214,8.3431455 C108.561505,8.3431455 107.891786,8.07401177 107.356011,7.53574432 C106.820235,6.99747687 106.552347,6.32464256 106.552347,5.44995795 L106.552347,5.31539108 C106.552347,4.7098402 106.686291,4.23885618 106.887207,3.76787216 C107.088122,3.29688814 107.422982,2.96047098 107.824814,2.69133726 C108.226646,2.42220353 108.695449,2.28763667 109.231224,2.28763667 C110.034888,2.28763667 110.637635,2.5567704 111.106439,3.02775442 C111.575242,3.49873844 111.776158,4.23885618 111.776158,5.18082422 L111.776158,5.78637511 L108.092702,5.78637511 C108.159673,6.19007569 108.293618,6.45920942 108.561505,6.72834315 C108.829393,6.99747687 109.097281,7.0647603 109.499112,7.0647603 C110.10186,7.0647603 110.570663,6.86291001 110.905523,6.39192599 L111.642214,7.2666106 C111.374326,7.60302775 111.106439,7.87216148 110.704607,8.00672834 C110.369747,8.27586207 109.900944,8.3431455 109.43214,8.3431455 Z M109.231224,3.56602187 C108.896365,3.56602187 108.695449,3.70058873 108.494533,3.90243902 C108.293618,4.10428932 108.159673,4.44070648 108.159673,4.77712363 L110.302775,4.77712363 L110.302775,4.64255677 C110.302775,4.30613961 110.168831,4.03700589 110.034888,3.83515559 C109.833972,3.70058873 109.566084,3.56602187 109.231224,3.56602187 Z" id="Shape"></path>
                    <polygon id="Path" points="114.388064 8.27586207 112.847709 8.27586207 112.847709 2.80123555e-16 114.388064 2.80123555e-16"></polygon>
                    <path d="M120.817369,5.38267452 C120.817369,6.25735913 120.616453,6.99747687 120.214622,7.53574432 C119.81279,8.07401177 119.277015,8.3431455 118.540323,8.3431455 C117.937576,8.3431455 117.468773,8.14129521 117.133913,7.73759462 L117.133913,10.4962153 L115.593558,10.4962153 L115.593558,2.42220353 L116.999969,2.42220353 L117.066941,3.02775442 C117.468773,2.5567704 117.937576,2.3549201 118.540323,2.3549201 C119.277015,2.3549201 119.81279,2.62405383 120.214622,3.16232128 C120.616453,3.70058873 120.817369,4.44070648 120.817369,5.38267452 L120.817369,5.38267452 L120.817369,5.38267452 Z M119.277015,5.31539108 C119.277015,4.77712363 119.210043,4.37342304 119.009127,4.03700589 C118.808211,3.76787216 118.540323,3.56602187 118.205464,3.56602187 C117.73666,3.56602187 117.4018,3.76787216 117.200884,4.10428932 L117.200884,6.45920942 C117.4018,6.86291001 117.73666,7.0647603 118.205464,7.0647603 C118.875183,7.13204373 119.277015,6.52649285 119.277015,5.31539108 Z" id="Shape"></path>
                    <path d="M121.621032,7.46846089 C121.621032,7.19932717 121.688004,6.99747687 121.88892,6.86291001 C122.022864,6.72834315 122.290752,6.66105971 122.491667,6.66105971 C122.759556,6.66105971 122.960471,6.72834315 123.094415,6.86291001 C123.228359,6.99747687 123.362302,7.19932717 123.362302,7.46846089 C123.362302,7.73759462 123.295331,7.93944491 123.094415,8.07401177 C122.893499,8.20857864 122.692583,8.27586207 122.491667,8.27586207 C122.290752,8.27586207 122.022864,8.20857864 121.88892,8.07401177 C121.754976,7.93944491 121.621032,7.73759462 121.621032,7.46846089 Z" id="Path"></path>
                    <path d="M125.907236,1.00925147 L125.237517,1.00925147 L125.237517,3.36417157 L124.500826,3.36417157 L124.500826,1.00925147 L123.764134,1.00925147 L123.764134,0.403700589 L125.974208,0.403700589 L125.974208,1.00925147 L125.907236,1.00925147 Z M128.586113,1.48023549 L127.983366,3.36417157 L127.581535,3.36417157 L126.978787,1.48023549 L126.978787,3.36417157 L126.309068,3.36417157 L126.309068,0.47098402 L127.179703,0.47098402 L127.78245,2.42220353 L128.45217,0.47098402 L129.255833,0.47098402 L129.255833,3.36417157 L128.586113,3.36417157 L128.586113,1.48023549 L128.586113,1.48023549 Z" id="Shape"></path>
                </g>
            </g>
            <path d="M51.3005013,43.7342304 L31.0080052,43.7342304 L31.0080052,39.3608074 L40.3840759,29.470143 C42.6611217,26.8460892 43.8666166,24.7603028 43.8666166,23.1455004 C43.8666166,21.8671152 43.5987288,20.9251472 43.0629533,20.2523129 C42.5271779,19.5794786 41.7235146,19.2430614 40.7189357,19.2430614 C39.7143566,19.2430614 38.8437215,19.646762 38.2409741,20.58873 C37.5712547,21.4634146 37.303367,22.5399495 37.303367,23.8856182 L30.5392017,23.8856182 C30.5392017,22.0689655 31.0080052,20.4541632 31.8786403,18.9066442 C32.7492755,17.3591253 34.0217422,16.215307 35.5620967,15.3406224 C37.1694231,14.4659378 38.9106934,14.0622372 40.8528795,14.0622372 C44.0005604,14.0622372 46.41155,14.8023549 48.1528204,16.2825904 C49.8271187,17.7628259 50.6977538,19.8486123 50.6977538,22.607233 C50.6977538,23.7510513 50.496838,24.8948696 50.0280345,25.9714045 C49.6262029,27.0479394 48.9564835,28.1917578 48.0188765,29.4028595 C47.0812694,30.6139613 45.6748588,32.2287637 43.6657008,34.1799832 L39.9152724,38.5534062 L51.3674732,38.5534062 L51.3005013,43.7342304 L51.3005013,43.7342304 Z" id="Path" fill="#FFFFFF"></path>
            <polygon id="Path" fill="#FFFFFF" points="74.9415939 43.7342304 68.1774286 43.7342304 68.1774286 22.1362489 61.5472071 24.0874685 61.5472071 18.9739277 74.3388466 14.5332212 74.9415939 14.5332212"></polygon>
            <polygon id="Path" fill="#FFFFFF" points="102.065227 43.7342304 95.3010619 43.7342304 95.3010619 22.1362489 88.6708405 24.0874685 88.6708405 18.9739277 101.46248 14.5332212 102.065227 14.5332212"></polygon>
            <path d="M58.3995262,34.9873844 L58.3995262,34.9873844 C56.9261437,34.9873844 55.7876208,33.7762826 55.7876208,32.3633305 L55.7876208,32.3633305 C55.7876208,30.883095 56.9931156,29.7392767 58.3995262,29.7392767 L58.3995262,29.7392767 C59.8729088,29.7392767 61.0114317,30.9503785 61.0114317,32.3633305 L61.0114317,32.3633305 C61.0784036,33.7762826 59.8729088,34.9873844 58.3995262,34.9873844 Z" id="Path" fill="#FFFFFF"></path>
            <path d="M84.1837209,34.9873844 L84.1837209,34.9873844 C82.7103384,34.9873844 81.5718155,33.7762826 81.5718155,32.3633305 L81.5718155,32.3633305 C81.5718155,30.883095 82.7773103,29.7392767 84.1837209,29.7392767 L84.1837209,29.7392767 C85.6571034,29.7392767 86.7956263,30.9503785 86.7956263,32.3633305 L86.7956263,32.3633305 C86.8625982,33.7762826 85.6571034,34.9873844 84.1837209,34.9873844 Z" id="Path" fill="#FFFFFF"></path>
        </g>
    </g>
</svg>