<?xml version="1.0" encoding="UTF-8"?>
<svg width="100pt" height="100pt" version="1.1" viewBox="0 0 100 100" xmlns="http://www.w3.org/2000/svg">
 <path d="m85.109 59.953c5.0547-8.3125 6.5156-18.465 4-27.863-4.1797-15.629-18.402-26.547-34.582-26.547h-2.3047c-19.418 0-35.219 15.797-35.219 35.219v4.6719l-6.5469 10.062c-0.76562 1.1719-0.98047 2.6211-0.59375 3.9688s1.3359 2.457 2.6055 3.0469l4.7031 2.1875 1.8633 10.605c0.94531 5.3906 5.6055 9.3008 11.078 9.3008h8.6211c1.1289 0 2.1172 0.80469 2.3438 1.9062l1.3906 6.6953c0.14844 0.72656 0.78906 1.2422 1.5312 1.2422h33.203c0.46875 0 0.91406-0.21094 1.2109-0.57812 0.29688-0.36328 0.41406-0.84375 0.31641-1.3047l-2.125-10.227c-0.83984-4.0469-0.12109-8.2188 2.0273-11.75zm-49.793-12.852c-1.4883 1.1602-3.4102 1.7969-5.4141 1.7969s-3.9258-0.64063-5.4141-1.7969c-0.67969-0.53125-0.80469-1.5117-0.27344-2.1914 0.53125-0.67969 1.5117-0.80469 2.1914-0.27344 1.8867 1.4688 5.1016 1.4688 6.9883 0 0.67969-0.53125 1.6602-0.41016 2.1914 0.27344 0.53125 0.67578 0.41016 1.6602-0.26953 2.1914zm31.086-14.516-10.176 10.176c-1.4609 1.4609-3.832 1.4609-5.2969 0l-10.176-10.176c-3.1953-3.1953-3.0078-8.4922 0.5625-11.438 3.1094-2.5703 7.7461-2.1094 10.602 0.74609l1.6641 1.6641 1.6641-1.6641c2.8516-2.8516 7.4883-3.3164 10.602-0.74609 3.5625 2.9453 3.75 8.2422 0.55469 11.438z" fill="#ffb251"/>
</svg>
