<?xml version="1.0" encoding="UTF-8"?>
<svg width="100pt" height="100pt" version="1.1" viewBox="0 0 100 100" xmlns="http://www.w3.org/2000/svg">
 <g fill="#ffb251">
  <path d="m3.1289 54.121c0.83203 0 1.625-0.32812 2.2109-0.91406 0.58594-0.58594 0.91406-1.3789 0.91406-2.2109-0.027344-4.5625 2.3477-8.8047 6.25-11.164v18.5c0 4.6016 3.7305 8.3359 8.3359 8.3359 4.6016 0 8.332-3.7344 8.332-8.3359v-18.496c3.8984 2.3633 6.2695 6.6016 6.2422 11.16 0 1.7266 1.3984 3.125 3.125 3.125 1.7266 0 3.125-1.3984 3.125-3.125l-0.003906-0.054688 0.003906-0.027344v0.003907c-0.007812-2.2188 0.73047-4.3711 2.0938-6.1211v7.2891c0 3.4492 2.7969 6.2461 6.2461 6.2461 3.4492 0 6.2461-2.7969 6.2461-6.2461v-7.293c1.3633 1.75 2.1016 3.9062 2.0938 6.125 0 0.027343-0.003906 0.054687-0.003906 0.082031v-0.003906c0 1.7266 1.4023 3.125 3.125 3.125 1.7266 0 3.125-1.3984 3.125-3.125 0.32031-5.207 3.5391-9.793 8.3281-11.859l-4.0156 15.031c-0.61328 3.0703 0.18359 6.2539 2.168 8.6758 1.9844 2.418 4.9531 3.8242 8.082 3.8242 3.1328 0 6.0977-1.4062 8.0859-3.8242 1.9844-2.4219 2.7812-5.6055 2.168-8.6758l-3.9883-15.027v-0.003906c4.7891 2.0664 8.0117 6.6523 8.332 11.859 0 1.7266 1.3984 3.125 3.125 3.125s3.125-1.3984 3.125-3.125c0-11.227-8.9531-19.691-20.828-19.691-7.2773-0.20703-14.121 3.4297-18.027 9.5703-2.6406-3.4922-6.7656-5.543-11.141-5.543-4.3789 0-8.5039 2.0547-11.145 5.5469-3.9023-6.1445-10.75-9.7812-18.023-9.5742-11.875 0-20.828 8.4648-20.828 19.691h-0.0039062c0 0.83203 0.33203 1.625 0.91797 2.2109 0.58594 0.58594 1.3789 0.91406 2.207 0.91406z"/>
  <path d="m85.422 20.836c0 3.4492-2.8008 6.2461-6.25 6.2461-3.4531 0-6.25-2.7969-6.25-6.2461 0-3.4531 2.7969-6.25 6.25-6.25 3.4492 0 6.25 2.7969 6.25 6.25"/>
  <path d="m27.086 20.836c0 3.4492-2.7969 6.2461-6.25 6.2461-3.4492 0-6.25-2.7969-6.25-6.2461 0-3.4531 2.8008-6.25 6.25-6.25 3.4531 0 6.25 2.7969 6.25 6.25"/>
  <path d="m50.004 31.25c2.1094 0 4.0117-1.2695 4.8203-3.2227 0.80859-1.9492 0.35938-4.1953-1.1328-5.6875-1.4922-1.4922-3.7344-1.9375-5.6875-1.1289-1.9492 0.80469-3.2188 2.7109-3.2188 4.8203 0 1.3828 0.54688 2.7109 1.5273 3.6914 0.97656 0.97656 2.3047 1.5273 3.6914 1.5273z"/>
  <path d="m95.832 77.082h-91.664c-2.3008 0-4.168 1.8672-4.168 4.168s1.8672 4.1641 4.168 4.1641h91.664c2.3008 0 4.1641-1.8633 4.1641-4.1641s-1.8633-4.168-4.1641-4.168z"/>
 </g>
</svg>
