<?xml version="1.0" encoding="UTF-8"?>
<svg width="100pt" height="100pt" version="1.1" viewBox="0 0 100 100" xmlns="http://www.w3.org/2000/svg">
 <g fill="#ffb251">
  <path d="m85.105 59.355-16.355-32.273h-37.5l-16.355 32.273c-2.2812 5.293-2.9414 11.145-1.8906 16.812 1.0508 5.668 3.7617 10.895 7.7891 15.02 5.4609 5.668 13.004 8.8516 20.875 8.8125h16.668-0.003907c7.8711 0.039062 15.414-3.1445 20.875-8.8125 4.0273-4.125 6.7383-9.3516 7.7891-15.02 1.0508-5.668 0.39062-11.52-1.8906-16.812zm-21.438 14.48v-0.003907c0.58984 0.58594 0.92188 1.3789 0.92188 2.2109 0 0.82812-0.33203 1.625-0.92188 2.207-0.58594 0.58594-1.3828 0.91797-2.2109 0.91797s-1.6211-0.33203-2.207-0.91797l-9.25-9.25-9.25 9.25c-0.58594 0.58594-1.3789 0.91797-2.207 0.91797s-1.625-0.33203-2.2109-0.91797c-0.58984-0.58203-0.92188-1.3789-0.92188-2.207 0-0.83203 0.33203-1.625 0.92188-2.2109l9.25-9.25-9.25-9.25c-1.2188-1.2188-1.2188-3.1953 0-4.4141 1.2227-1.2227 3.1992-1.2227 4.418 0l9.25 9.25 9.25-9.25c1.2188-1.2227 3.1953-1.2227 4.418 0 1.2188 1.2188 1.2188 3.1953 0 4.4141l-9.25 9.25z"/>
  <path d="m31.238 22.918h16.672l-3.4375-15.488c-0.42188-1.9062-2.1133-3.2617-4.0664-3.2617h-11.25c-0.63281 0-1.2305 0.28516-1.625 0.77734-0.39844 0.49219-0.54688 1.1406-0.41016 1.7578z"/>
  <path d="m60.418 22.918h8.3281l4.1328-20.457v-0.003907c0.10938-0.60938-0.058594-1.2344-0.45703-1.7109-0.39844-0.47266-0.98438-0.74609-1.6055-0.74609h-6.2305c-2.2891 0.027344-4.1406 1.875-4.1758 4.168-0.019531-2.2852-1.8594-4.1367-4.1445-4.168h-6.2539c-0.61719 0-1.207 0.27344-1.6055 0.74609-0.39844 0.47656-0.56641 1.1016-0.45703 1.7109l4.1289 20.461z"/>
 </g>
</svg>
