<?xml version="1.0" encoding="UTF-8"?>
<svg width="100pt" height="100pt" version="1.1" viewBox="0 0 100 100" xmlns="http://www.w3.org/2000/svg">
 <g fill="#ffb251">
  <path d="m77.082 91.668h-22.918l0.003907-77.086h21.457l-9.8359 24.902c-0.63281 1.6016 0.15234 3.4141 1.7539 4.0469 1.6055 0.63281 3.418-0.15234 4.0508-1.7539l8.6133-21.82 8.6172 21.816v0.003906c0.30469 0.76953 0.90234 1.3867 1.6602 1.7188 0.75781 0.32812 1.6172 0.34375 2.3906 0.039062 0.76953-0.30469 1.3867-0.90234 1.7148-1.6602 0.32812-0.76172 0.34375-1.6211 0.039062-2.3906l-11.523-29.172c-0.46484-1.1953-1.6172-1.9805-2.8984-1.9805h-26.043l0.003907-4.1641c0-2.3008-1.8672-4.168-4.168-4.168s-4.168 1.8672-4.168 4.168v4.1641h-26.043 0.003907c-1.2812 0-2.4336 0.78516-2.8984 1.9805l-11.523 29.172c-0.63281 1.6016 0.15625 3.4141 1.7578 4.0469 1.6016 0.63281 3.4141-0.15234 4.0469-1.7539l8.6172-21.82 8.6172 21.816-0.003906 0.003906c0.30469 0.76953 0.90234 1.3867 1.6602 1.7188 0.76172 0.32812 1.6211 0.34375 2.3906 0.039062 0.76953-0.30469 1.3867-0.90234 1.7148-1.6602 0.33203-0.76172 0.34375-1.6211 0.039063-2.3906l-9.8359-24.902h21.457v77.086h-22.918 0.003907c-2.3008 0-4.168 1.8633-4.168 4.1641s1.8672 4.168 4.168 4.168h54.168-0.003907c2.3008 0 4.168-1.8672 4.168-4.168s-1.8672-4.1641-4.168-4.1641z"/>
  <path d="m39.438 50.648c0.035156-0.15625 0-0.32031-0.10156-0.44922-0.10156-0.125-0.25391-0.19922-0.41797-0.19922h-38.254c-0.16016 0-0.31641 0.074219-0.41406 0.19922-0.10156 0.12891-0.14062 0.29297-0.10547 0.44922 1.418 5.9336 5.4375 10.91 10.945 13.535 5.5039 2.6289 11.902 2.6289 17.406 0 5.5039-2.625 9.5273-7.6016 10.941-13.535z"/>
  <path d="m99.336 50h-38.254c-0.16406 0-0.31641 0.074219-0.41797 0.19922-0.10156 0.12891-0.13672 0.29297-0.10156 0.44922 1.4141 5.9336 5.4375 10.91 10.941 13.535 5.5039 2.6289 11.902 2.6289 17.406 0 5.5078-2.625 9.5273-7.6016 10.945-13.535 0.035156-0.15625-0.003907-0.32031-0.10547-0.44922-0.097656-0.125-0.25391-0.19922-0.41406-0.19922z"/>
 </g>
</svg>
